<?xml version="1.0" encoding="UTF-8" standalone="no"?>
<!-- Created with Inkscape (http://www.inkscape.org/) -->

<svg
   version="1.1"
   id="svg2"
   width="814.8667"
   height="226.53333"
   viewBox="0 0 814.8667 226.53333"
   sodipodi:docname="BANT-logo-RGB.eps"
   xmlns:inkscape="http://www.inkscape.org/namespaces/inkscape"
   xmlns:sodipodi="http://sodipodi.sourceforge.net/DTD/sodipodi-0.dtd"
   xmlns="http://www.w3.org/2000/svg"
   xmlns:svg="http://www.w3.org/2000/svg">
  <defs
     id="defs6">
    <clipPath
       clipPathUnits="userSpaceOnUse"
       id="clipPath18">
      <path
         d="m 1291.74,1577.14 c 74.3,-102.22 117.12,-244.35 106.74,-419.01 -58.92,369.05 -214.82,454.18 -403.246,532.41 C 1125.1,1277.59 773.602,855.684 1566.12,450.719 c 103.84,179.332 142.05,397.125 90.14,614.611 -52.58,220.19 -187.63,398.94 -364.52,511.81 z"
         id="path16" />
    </clipPath>
    <linearGradient
       x1="0"
       y1="0"
       x2="1"
       y2="0"
       gradientUnits="userSpaceOnUse"
       gradientTransform="matrix(-360.46,835.266,835.266,360.46,1562.27,544.51)"
       spreadMethod="pad"
       id="linearGradient24">
      <stop
         style="stop-opacity:1;stop-color:#66b5d9"
         offset="0"
         id="stop20" />
      <stop
         style="stop-opacity:1;stop-color:#2e6ba8"
         offset="1"
         id="stop22" />
    </linearGradient>
    <clipPath
       clipPathUnits="userSpaceOnUse"
       id="clipPath34">
      <path
         d="M 0,898.121 C 51.3789,1013.58 153.059,1121.73 309.512,1200.07 19.3594,964.508 23.5898,786.934 50.0508,584.641 342.738,903.586 883.871,810.129 838.328,1698.95 631.098,1699.21 423.379,1623.41 260.98,1469.71 96.5781,1314.08 9.3125,1107.75 0,898.121 Z"
         id="path32" />
    </clipPath>
    <linearGradient
       x1="0"
       y1="0"
       x2="1"
       y2="0"
       gradientUnits="userSpaceOnUse"
       gradientTransform="matrix(1000.91,556.663,556.663,-1000.91,-65.5028,919.289)"
       spreadMethod="pad"
       id="linearGradient42">
      <stop
         style="stop-opacity:1;stop-color:#c9e01d"
         offset="0"
         id="stop36" />
      <stop
         style="stop-opacity:1;stop-color:#c9e01d"
         offset="0.299629"
         id="stop38" />
      <stop
         style="stop-opacity:1;stop-color:#4bbc38"
         offset="1"
         id="stop40" />
    </linearGradient>
    <clipPath
       clipPathUnits="userSpaceOnUse"
       id="clipPath52">
      <path
         d="m 1255.75,138.32 c -125.67,-13.238 -270.172,20.739 -416.25,117.071 349.08,-133.5 500.75,-41.051 662.71,83.007 -422.56,94 -612.187,609.368 -1359.155,125.512 C 246.441,284.32 415.949,142.332 630.25,78.5391 847.234,13.9805 1069.55,41.5703 1255.75,138.32 Z"
         id="path50" />
    </clipPath>
    <linearGradient
       x1="0"
       y1="0"
       x2="1"
       y2="0"
       gradientUnits="userSpaceOnUse"
       gradientTransform="matrix(1359.16,0,0,-1359.16,143.053,355.85)"
       spreadMethod="pad"
       id="linearGradient58">
      <stop
         style="stop-opacity:1;stop-color:#891b8d"
         offset="0"
         id="stop54" />
      <stop
         style="stop-opacity:1;stop-color:#60258b"
         offset="1"
         id="stop56" />
    </linearGradient>
  </defs>
  <sodipodi:namedview
     id="namedview4"
     pagecolor="#ffffff"
     bordercolor="#000000"
     borderopacity="0.25"
     inkscape:showpageshadow="2"
     inkscape:pageopacity="0.0"
     inkscape:pagecheckerboard="0"
     inkscape:deskcolor="#d1d1d1" />
  <g
     id="g8"
     inkscape:groupmode="layer"
     inkscape:label="ink_ext_XXXXXX"
     transform="matrix(1.3333333,0,0,-1.3333333,0,226.53333)">
    <g
       id="g10"
       transform="scale(0.1)">
      <g
         id="g12">
        <g
           id="g14"
           clip-path="url(#clipPath18)">
          <path
             d="m 1291.74,1577.14 c 74.3,-102.22 117.12,-244.35 106.74,-419.01 -58.92,369.05 -214.82,454.18 -403.246,532.41 C 1125.1,1277.59 773.602,855.684 1566.12,450.719 c 103.84,179.332 142.05,397.125 90.14,614.611 -52.58,220.19 -187.63,398.94 -364.52,511.81"
             style="fill:url(#linearGradient24);fill-opacity:1;fill-rule:nonzero;stroke:none"
             id="path26" />
        </g>
      </g>
      <g
         id="g28">
        <g
           id="g30"
           clip-path="url(#clipPath34)">
          <path
             d="M 0,898.121 C 51.3789,1013.58 153.059,1121.73 309.512,1200.07 19.3594,964.508 23.5898,786.934 50.0508,584.641 342.738,903.586 883.871,810.129 838.328,1698.95 631.098,1699.21 423.379,1623.41 260.98,1469.71 96.5781,1314.08 9.3125,1107.75 0,898.121"
             style="fill:url(#linearGradient42);fill-opacity:1;fill-rule:nonzero;stroke:none"
             id="path44" />
        </g>
      </g>
      <g
         id="g46">
        <g
           id="g48"
           clip-path="url(#clipPath52)">
          <path
             d="m 1255.75,138.32 c -125.67,-13.238 -270.172,20.739 -416.25,117.071 349.08,-133.5 500.75,-41.051 662.71,83.007 -422.56,94 -612.187,609.368 -1359.155,125.512 C 246.441,284.32 415.949,142.332 630.25,78.5391 847.234,13.9805 1069.55,41.5703 1255.75,138.32"
             style="fill:url(#linearGradient58);fill-opacity:1;fill-rule:nonzero;stroke:none"
             id="path60" />
        </g>
      </g>
      <path
         d="m 2248.47,507.141 h 332.05 c 57.08,0 101.4,14.058 132.96,42.211 31.55,28.117 47.33,67.957 47.33,119.468 0,50.547 -15.78,89.422 -47.33,116.614 -31.56,27.179 -75.88,40.777 -132.96,40.777 h -332.05 z m 0,447.843 h 306.51 c 45.06,0 82.62,12.157 112.68,36.485 30.04,24.321 45.06,59.381 45.06,105.161 0,51.51 -13.53,87.75 -40.55,108.75 -27.06,20.97 -66.12,31.47 -117.19,31.47 H 2408.7 2248.47 Z m -187.79,427.806 h 521.33 c 96.16,0 173.28,-20.99 231.38,-62.95 58.08,-41.99 87.12,-105.41 87.12,-190.3 0,-51.51 -13.27,-95.64 -39.79,-132.345 -26.56,-36.73 -64.37,-65.105 -113.43,-85.136 v -2.864 c 66.1,-13.367 116.17,-43.168 150.23,-89.425 34.04,-46.282 51.08,-104.227 51.08,-173.84 0,-40.071 -7.52,-77.52 -22.54,-112.321 -15.02,-34.828 -38.56,-64.871 -70.61,-90.148 -32.07,-25.27 -73.13,-45.313 -123.19,-60.082 -50.11,-14.809 -109.68,-22.18 -178.8,-22.18 H 2060.68 V 1382.79"
         style="fill:#5b2e96;fill-opacity:1;fill-rule:nonzero;stroke:none"
         id="path62" />
      <path
         d="m 3339.23,767.551 h 327.51 l -160.75,439.259 h -4.5 z m 66.1,615.239 h 199.81 L 4018.32,361.199 H 3817 L 3716.34,631.621 H 3288.13 L 3187.47,361.199 h -193.81 l 411.67,1021.591"
         style="fill:#5b2e96;fill-opacity:1;fill-rule:nonzero;stroke:none"
         id="path64" />
      <path
         d="m 4112.95,1382.79 h 198.31 l 489.8,-752.599 h 2.99 v 752.599 h 178.79 V 361.199 h -198.31 l -488.29,751.181 h -4.5 V 361.199 H 4112.95 V 1382.79"
         style="fill:#5b2e96;fill-opacity:1;fill-rule:nonzero;stroke:none"
         id="path66" />
      <path
         d="m 5065.46,1382.79 h 868.38 V 1228.27 H 5592.79 V 361.199 h -187.78 v 867.071 h -339.55 v 154.52"
         style="fill:#5b2e96;fill-opacity:1;fill-rule:nonzero;stroke:none"
         id="path68" />
      <path
         d="m 6025.88,1313.66 h 13.45 c 11.33,0 21.74,0.57 21.74,13.61 0,10.96 -9.48,12.66 -18.16,12.66 h -17.03 z m -12.83,36.67 h 31.92 c 19.67,0 28.93,-7.75 28.93,-23.62 0,-14.94 -9.45,-21.17 -21.73,-22.5 l 23.61,-36.48 h -13.79 l -22.47,35.54 h -13.64 v -35.54 h -12.83 z m 27.61,-101.7 c 32.69,0 58.03,26.09 58.03,60.68 0,33.84 -25.34,59.92 -58.03,59.92 -33.09,0 -58.43,-26.08 -58.43,-59.92 0,-34.59 25.34,-60.68 58.43,-60.68 z m 0,131 c 38.54,0 70.86,-30.43 70.86,-70.32 0,-40.64 -32.32,-71.08 -70.86,-71.08 -38.76,0 -71.3,30.44 -71.3,71.08 0,39.89 32.54,70.32 71.3,70.32"
         style="fill:#5b2e96;fill-opacity:1;fill-rule:nonzero;stroke:none"
         id="path70" />
      <path
         d="m 2127.34,67.1602 c 0,10.7304 -7,16.1015 -20.99,16.1015 h -26.61 V 48.5898 h 25.78 c 5.84,0 10.94,1.7188 15.29,5.1485 4.35,3.4219 6.53,7.9023 6.53,13.4219 z m -5.97,47.7808 c 0,4.528 -1.88,8.118 -5.64,10.77 -3.43,2.32 -7.46,3.48 -12.11,3.48 h -23.88 v -27.363 h 26.2 c 4.09,0 7.69,1.242 10.78,3.731 3.1,2.492 4.65,5.621 4.65,9.382 z m 25.37,-48.1129 c 0,-10.8281 -3.67,-19.539 -11.03,-26.1093 -7.35,-6.5782 -16.5,-9.8672 -27.44,-9.8672 h -48.44 V 146.941 h 44.29 c 9.84,0 17.96,-2.32 24.38,-6.961 7.4,-5.421 11.11,-13.281 11.11,-23.558 0,-10.16 -6.25,-17.7423 -18.74,-22.7111 7.63,-0.7812 13.85,-3.6601 18.66,-8.6289 4.81,-4.9804 7.21,-11.0625 7.21,-18.2539"
         style="fill:#5b2e96;fill-opacity:1;fill-rule:nonzero;stroke:none"
         id="path72" />
      <path
         d="m 2207.11,95.1992 c -8.51,-0.1172 -15.12,-2.0781 -19.82,-5.8906 -4.7,-3.8203 -7.05,-9.207 -7.05,-16.168 V 30.8516 H 2162 V 113.77 h 15.92 l 2.82,-10.438 c 6.64,8.059 15.43,12.109 26.37,12.109 V 95.1992"
         style="fill:#5b2e96;fill-opacity:1;fill-rule:nonzero;stroke:none"
         id="path74" />
      <path
         d="m 2238.96,30.8516 h -18.24 V 113.77 h 18.24 z m 0,94.5394 h -18.24 v 18.238 h 18.24 v -18.238"
         style="fill:#5b2e96;fill-opacity:1;fill-rule:nonzero;stroke:none"
         id="path76" />
      <path
         d="m 2304.47,30.8516 c -4.07,-1.3321 -8.64,-2 -13.71,-2 -8.15,0 -14.62,2.5976 -19.41,7.7968 -4.79,5.1914 -7.18,11.9414 -7.18,20.2305 v 41.4727 h -11.45 V 113.77 h 11.45 v 24.05 h 18.24 v -24.05 h 22.06 V 98.3516 h -22.06 V 57.8789 c 0,-3.207 1.04,-6.0273 3.13,-8.457 2.08,-2.4336 4.66,-3.6406 7.74,-3.6406 4.28,0 8.01,0.3789 11.19,1.1484 V 30.8516"
         style="fill:#5b2e96;fill-opacity:1;fill-rule:nonzero;stroke:none"
         id="path78" />
      <path
         d="m 2337.97,30.8516 h -18.24 V 113.77 h 18.24 z m 0,94.5394 h -18.24 v 18.238 h 18.24 v -18.238"
         style="fill:#5b2e96;fill-opacity:1;fill-rule:nonzero;stroke:none"
         id="path80" />
      <path
         d="m 2417.41,55.5586 c 0,-8.6289 -3.01,-15.2266 -9.04,-19.8203 -6.03,-4.5899 -14.07,-6.8867 -24.13,-6.8867 -12.16,0 -22.45,2.7695 -30.85,8.289 l 5.64,14.1094 c 8.51,-4.5391 16.75,-6.8008 24.72,-6.8008 3.42,0 6.63,0.7696 9.61,2.3125 3.65,1.8867 5.48,4.4297 5.48,7.6367 0,2.543 -2.27,5.0313 -6.8,7.461 -0.78,0.332 -6.59,2.4922 -17.42,6.4726 -7.52,2.7578 -12.69,5.9375 -15.51,9.5391 -2.82,3.5898 -4.23,8.0898 -4.23,13.5078 0,8.0703 3.38,14.2621 10.12,18.5821 5.86,3.648 13.38,5.48 22.56,5.48 9.84,0 19.01,-2.109 27.53,-6.312 l -5.14,-14.9298 c -7.74,3.3203 -14.71,4.9805 -20.9,4.9805 -10.61,0 -15.92,-2.5391 -15.92,-7.6289 0,-1.8906 1.66,-3.711 4.98,-5.4805 0.99,-0.4414 5.91,-2.1484 14.76,-5.1406 7.07,-2.4297 12.38,-5.0781 15.92,-7.9609 5.75,-4.5391 8.62,-10.3399 8.62,-17.4102"
         style="fill:#5b2e96;fill-opacity:1;fill-rule:nonzero;stroke:none"
         id="path82" />
      <path
         d="m 2501.17,30.8516 h -18.25 v 51.4101 c 0,4.6367 -1.29,8.5196 -3.89,11.6094 -2.6,3.0977 -6,4.6406 -10.2,4.6406 -4.65,0 -8.82,-2.2617 -12.52,-6.8008 -3.71,-4.5312 -5.56,-9.9023 -5.56,-16.082 V 30.8516 H 2432.5 V 146.941 h 18.25 V 103.66 c 1.88,3.531 4.92,6.399 9.12,8.621 4.2,2.207 8.63,3.309 13.27,3.309 7.85,0 14.48,-2.699 19.9,-8.121 5.42,-5.418 8.13,-12.5471 8.13,-21.3987 V 30.8516"
         style="fill:#5b2e96;fill-opacity:1;fill-rule:nonzero;stroke:none"
         id="path84" />
      <path
         d="m 2631,67.1602 -19.72,58.1288 -19.35,-58.1288 z m 31.88,-36.3086 h -20.07 l -6.99,19.7265 h -49.42 l -6.63,-19.7265 h -19.89 l 41.13,116.0894 h 20.73 l 41.14,-116.0894"
         style="fill:#5b2e96;fill-opacity:1;fill-rule:nonzero;stroke:none"
         id="path86" />
      <path
         d="m 2735.68,55.5586 c 0,-8.6289 -3.01,-15.2266 -9.03,-19.8203 -6.03,-4.5899 -14.08,-6.8867 -24.14,-6.8867 -12.16,0 -22.45,2.7695 -30.84,8.289 l 5.63,14.1094 c 8.52,-4.5391 16.75,-6.8008 24.72,-6.8008 3.42,0 6.63,0.7696 9.62,2.3125 3.64,1.8867 5.47,4.4297 5.47,7.6367 0,2.543 -2.27,5.0313 -6.8,7.461 -0.78,0.332 -6.58,2.4922 -17.42,6.4726 -7.52,2.7578 -12.68,5.9375 -15.51,9.5391 -2.81,3.5898 -4.23,8.0898 -4.23,13.5078 0,8.0703 3.38,14.2621 10.12,18.5821 5.86,3.648 13.38,5.48 22.56,5.48 9.84,0 19.01,-2.109 27.53,-6.312 l -5.14,-14.9298 c -7.74,3.3203 -14.71,4.9805 -20.9,4.9805 -10.61,0 -15.92,-2.5391 -15.92,-7.6289 0,-1.8906 1.66,-3.711 4.98,-5.4805 0.99,-0.4414 5.91,-2.1484 14.76,-5.1406 7.07,-2.4297 12.38,-5.0781 15.92,-7.9609 5.75,-4.5391 8.62,-10.3399 8.62,-17.4102"
         style="fill:#5b2e96;fill-opacity:1;fill-rule:nonzero;stroke:none"
         id="path88" />
      <path
         d="m 2809.99,55.5586 c 0,-8.6289 -3.01,-15.2266 -9.04,-19.8203 -6.03,-4.5899 -14.07,-6.8867 -24.13,-6.8867 -12.17,0 -22.45,2.7695 -30.85,8.289 l 5.64,14.1094 c 8.51,-4.5391 16.75,-6.8008 24.71,-6.8008 3.43,0 6.63,0.7696 9.62,2.3125 3.65,1.8867 5.48,4.4297 5.48,7.6367 0,2.543 -2.27,5.0313 -6.81,7.461 -0.77,0.332 -6.58,2.4922 -17.41,6.4726 -7.52,2.7578 -12.69,5.9375 -15.51,9.5391 -2.82,3.5898 -4.23,8.0898 -4.23,13.5078 0,8.0703 3.37,14.2621 10.12,18.5821 5.86,3.648 13.38,5.48 22.56,5.48 9.84,0 19.01,-2.109 27.53,-6.312 l -5.15,-14.9298 c -7.73,3.3203 -14.7,4.9805 -20.89,4.9805 -10.61,0 -15.92,-2.5391 -15.92,-7.6289 0,-1.8906 1.65,-3.711 4.97,-5.4805 0.99,-0.4414 5.92,-2.1484 14.76,-5.1406 7.08,-2.4297 12.39,-5.0781 15.93,-7.9609 5.74,-4.5391 8.62,-10.3399 8.62,-17.4102"
         style="fill:#5b2e96;fill-opacity:1;fill-rule:nonzero;stroke:none"
         id="path90" />
      <path
         d="m 2882.8,72.3086 c 0,7.3008 -1.77,13.2695 -5.31,17.9102 -3.87,5.2031 -9.39,7.7929 -16.58,7.7929 -7.41,0 -13.05,-2.5898 -16.92,-7.7929 -3.54,-4.6407 -5.31,-10.668 -5.31,-18.0782 0,-7.5195 1.66,-13.539 4.98,-18.0703 3.87,-5.2109 9.45,-7.8008 16.75,-7.8008 7.19,0 12.82,2.711 16.92,8.1289 3.65,4.75 5.47,10.7227 5.47,17.9102 z m 18.41,0 c 0,-12.5 -3.65,-22.7773 -10.95,-30.8477 -7.52,-8.4101 -17.58,-12.6093 -30.18,-12.6093 -12.5,0 -22.39,4.1992 -29.69,12.6093 -6.85,7.961 -10.28,18.2383 -10.28,30.8477 0,12.6133 3.53,22.832 10.61,30.6794 7.41,8.293 17.41,12.453 30.02,12.453 12.6,0 22.56,-4.16 29.86,-12.453 7.07,-7.8474 10.61,-18.0661 10.61,-30.6794"
         style="fill:#5b2e96;fill-opacity:1;fill-rule:nonzero;stroke:none"
         id="path92" />
      <path
         d="m 2979.33,35.9805 c -8.29,-4.7422 -17.86,-7.1289 -28.7,-7.1289 -12.38,0 -22.33,4.1992 -29.85,12.6093 -7.19,7.961 -10.78,18.2383 -10.78,30.8477 0,11.9414 3.98,22.1406 11.94,30.6014 7.96,8.449 17.58,12.68 28.86,12.68 9.29,0 18.68,-2.539 28.19,-7.629 l -7.12,-13.7618 c -6.31,3.6524 -13.11,5.4727 -20.41,5.4727 -6.86,0 -12.38,-2.7305 -16.58,-8.211 -4.21,-5.4726 -6.31,-11.8515 -6.31,-19.1523 0,-7.8477 1.94,-14.3281 5.81,-19.3984 3.98,-5.4219 9.23,-8.1289 15.76,-8.1289 8.18,0 16.31,1.6484 24.38,4.9687 l 4.81,-13.7695"
         style="fill:#5b2e96;fill-opacity:1;fill-rule:nonzero;stroke:none"
         id="path94" />
      <path
         d="m 3012.66,30.8516 h -18.25 V 113.77 h 18.25 z m 0,94.5394 h -18.25 v 18.238 h 18.25 v -18.238"
         style="fill:#5b2e96;fill-opacity:1;fill-rule:nonzero;stroke:none"
         id="path96" />
      <path
         d="m 3072.04,49.75 v 20.7305 c -20.9,0 -31.35,-4.75 -31.35,-14.2617 0,-3.2071 1.35,-6 4.07,-8.3672 2.7,-2.3907 6.32,-3.5703 10.86,-3.5703 4.86,0 10.34,1.8203 16.42,5.4687 z m 20.73,-18.8984 h -15.92 l -1.66,5.2968 c -6.97,-4.8671 -14.21,-7.2968 -21.73,-7.2968 -8.29,0 -15.45,2.5195 -21.48,7.5468 -6.02,5.0313 -9.04,11.3633 -9.04,19 0,12.5899 7.03,21.0508 21.07,25.3711 7.41,2.3203 16.75,3.4805 28.03,3.4805 v 6.8008 c 0,2.7578 -1.44,4.9687 -4.32,6.6289 -2.43,1.5508 -5.08,2.3323 -7.95,2.3323 -6.97,0 -14.66,-1.8909 -23.06,-5.6409 l -4.98,13.4299 c 10.39,5.308 20.29,7.961 29.69,7.961 8.4,0 15.29,-2.43 20.65,-7.301 5.36,-4.859 8.05,-11.4415 8.05,-19.7305 V 40.4609 c 0,-3.5312 0.88,-5.9101 2.65,-7.1211 v -2.4882"
         style="fill:#5b2e96;fill-opacity:1;fill-rule:nonzero;stroke:none"
         id="path98" />
      <path
         d="m 3153.31,30.8516 c -4.08,-1.3321 -8.65,-2 -13.72,-2 -8.14,0 -14.61,2.5976 -19.4,7.7968 -4.79,5.1914 -7.19,11.9414 -7.19,20.2305 v 41.4727 h -11.44 V 113.77 H 3113 v 24.05 h 18.25 v -24.05 h 22.06 V 98.3516 h -22.06 V 57.8789 c 0,-3.207 1.04,-6.0273 3.13,-8.457 2.08,-2.4336 4.65,-3.6406 7.73,-3.6406 4.28,0 8.01,0.3789 11.2,1.1484 V 30.8516"
         style="fill:#5b2e96;fill-opacity:1;fill-rule:nonzero;stroke:none"
         id="path100" />
      <path
         d="m 3186.8,30.8516 h -18.24 V 113.77 h 18.24 z m 0,94.5394 h -18.24 v 18.238 h 18.24 v -18.238"
         style="fill:#5b2e96;fill-opacity:1;fill-rule:nonzero;stroke:none"
         id="path102" />
      <path
         d="m 3263.1,72.3086 c 0,7.3008 -1.77,13.2695 -5.31,17.9102 -3.86,5.2031 -9.39,7.7929 -16.58,7.7929 -7.42,0 -13.05,-2.5898 -16.92,-7.7929 -3.55,-4.6407 -5.31,-10.668 -5.31,-18.0782 0,-7.5195 1.66,-13.539 4.98,-18.0703 3.87,-5.2109 9.45,-7.8008 16.74,-7.8008 7.19,0 12.84,2.711 16.93,8.1289 3.64,4.75 5.47,10.7227 5.47,17.9102 z m 18.4,0 c 0,-12.5 -3.65,-22.7773 -10.93,-30.8477 -7.52,-8.4101 -17.59,-12.6093 -30.2,-12.6093 -12.49,0 -22.38,4.1992 -29.69,12.6093 -6.85,7.961 -10.27,18.2383 -10.27,30.8477 0,12.6133 3.54,22.832 10.61,30.6794 7.41,8.293 17.42,12.453 30.02,12.453 12.6,0 22.55,-4.16 29.86,-12.453 7.07,-7.8474 10.6,-18.0661 10.6,-30.6794"
         style="fill:#5b2e96;fill-opacity:1;fill-rule:nonzero;stroke:none"
         id="path104" />
      <path
         d="m 3363.77,30.8516 h -18.24 v 51.5781 c 0,4.5312 -1.33,8.3516 -3.99,11.4414 -2.65,3.0977 -6.02,4.6406 -10.11,4.6406 -4.75,0 -8.9,-1.8203 -12.45,-5.4726 -3.75,-3.9805 -5.63,-9.1172 -5.63,-15.4297 V 30.8516 h -18.24 V 113.77 h 16.41 l 2.33,-8.45 c 6.85,6.84 14.16,10.27 21.89,10.27 7.85,0 14.44,-2.871 19.74,-8.621 5.53,-6.078 8.29,-13.7581 8.29,-23.0471 V 30.8516"
         style="fill:#5b2e96;fill-opacity:1;fill-rule:nonzero;stroke:none"
         id="path106" />
      <path
         d="m 3474.06,129.191 c -3.1,0.559 -6.42,0.829 -9.96,0.829 -3.2,0 -5.8,-1.051 -7.79,-3.149 -1.99,-2.101 -2.99,-4.762 -2.99,-7.961 v -5.14 h 15.1 V 98.3516 h -15.1 v -67.5 h -18.24 v 67.5 h -10.94 V 113.77 h 10.94 v 6.14 c 0,8.289 2.35,14.871 7.05,19.731 4.71,4.871 11.19,7.3 19.49,7.3 3.99,0 8.13,-0.55 12.44,-1.652 v -16.098"
         style="fill:#5b2e96;fill-opacity:1;fill-rule:nonzero;stroke:none"
         id="path108" />
      <path
         d="m 3537.08,72.3086 c 0,7.3008 -1.77,13.2695 -5.3,17.9102 -3.88,5.2031 -9.41,7.7929 -16.58,7.7929 -7.43,0 -13.05,-2.5898 -16.93,-7.7929 -3.54,-4.6407 -5.3,-10.668 -5.3,-18.0782 0,-7.5195 1.66,-13.539 4.97,-18.0703 3.88,-5.2109 9.45,-7.8008 16.75,-7.8008 7.19,0 12.83,2.711 16.92,8.1289 3.64,4.75 5.47,10.7227 5.47,17.9102 z m 18.41,0 c 0,-12.5 -3.64,-22.7773 -10.95,-30.8477 -7.52,-8.4101 -17.58,-12.6093 -30.18,-12.6093 -12.49,0 -22.39,4.1992 -29.69,12.6093 -6.86,7.961 -10.28,18.2383 -10.28,30.8477 0,12.6133 3.54,22.832 10.61,30.6794 7.41,8.293 17.42,12.453 30.02,12.453 12.61,0 22.56,-4.16 29.85,-12.453 7.08,-7.8474 10.62,-18.0661 10.62,-30.6794"
         style="fill:#5b2e96;fill-opacity:1;fill-rule:nonzero;stroke:none"
         id="path110" />
      <path
         d="m 3614.2,95.1992 c -8.52,-0.1172 -15.12,-2.0781 -19.82,-5.8906 -4.69,-3.8203 -7.05,-9.207 -7.05,-16.168 v -42.289 h -18.24 V 113.77 h 15.92 l 2.82,-10.438 c 6.63,8.059 15.43,12.109 26.37,12.109 V 95.1992"
         style="fill:#5b2e96;fill-opacity:1;fill-rule:nonzero;stroke:none"
         id="path112" />
      <path
         d="m 3775.58,30.8516 h -23.06 l -58.05,83.0894 V 30.8516 h -19.9 V 146.941 h 20.92 l 59.19,-84.1402 v 84.1402 h 20.9 V 30.8516"
         style="fill:#5b2e96;fill-opacity:1;fill-rule:nonzero;stroke:none"
         id="path114" />
      <path
         d="m 3858.99,30.8516 h -16.41 l -2.33,8.6172 c -4.97,-7.0782 -11.44,-10.6172 -19.4,-10.6172 -8.62,0 -15.64,2.7695 -21.06,8.289 -5.86,5.9805 -8.79,14.2696 -8.79,24.8907 V 113.77 h 18.24 V 62.1914 c 0,-4.4219 1.05,-8.0703 3.15,-10.9414 2.43,-3.4297 5.86,-5.1484 10.29,-5.1484 4.53,0 8.68,2.1289 12.44,6.3867 3.76,4.25 5.63,9.3711 5.63,15.3437 v 45.938 h 18.24 V 30.8516"
         style="fill:#5b2e96;fill-opacity:1;fill-rule:nonzero;stroke:none"
         id="path116" />
      <path
         d="m 3924.34,30.8516 c -4.08,-1.3321 -8.65,-2 -13.71,-2 -8.15,0 -14.62,2.5976 -19.41,7.7968 -4.78,5.1914 -7.19,11.9414 -7.19,20.2305 v 41.4727 h -11.44 V 113.77 h 11.44 v 24.05 h 18.26 v -24.05 h 22.05 V 98.3516 h -22.05 V 57.8789 c 0,-3.207 1.03,-6.0273 3.12,-8.457 2.08,-2.4336 4.66,-3.6406 7.73,-3.6406 4.28,0 8.01,0.3789 11.2,1.1484 V 30.8516"
         style="fill:#5b2e96;fill-opacity:1;fill-rule:nonzero;stroke:none"
         id="path118" />
      <path
         d="m 3984.72,95.1992 c -8.52,-0.1172 -15.12,-2.0781 -19.82,-5.8906 -4.69,-3.8203 -7.05,-9.207 -7.05,-16.168 v -42.289 h -18.24 V 113.77 h 15.92 l 2.82,-10.438 c 6.63,8.059 15.43,12.109 26.37,12.109 V 95.1992"
         style="fill:#5b2e96;fill-opacity:1;fill-rule:nonzero;stroke:none"
         id="path120" />
      <path
         d="m 4016.56,30.8516 h -18.24 V 113.77 h 18.24 z m 0,94.5394 h -18.24 v 18.238 h 18.24 v -18.238"
         style="fill:#5b2e96;fill-opacity:1;fill-rule:nonzero;stroke:none"
         id="path122" />
      <path
         d="m 4082.07,30.8516 c -4.07,-1.3321 -8.64,-2 -13.7,-2 -8.16,0 -14.63,2.5976 -19.41,7.7968 -4.79,5.1914 -7.19,11.9414 -7.19,20.2305 v 41.4727 h -11.45 V 113.77 h 11.45 v 24.05 h 18.25 v -24.05 h 22.05 V 98.3516 h -22.05 V 57.8789 c 0,-3.207 1.03,-6.0273 3.12,-8.457 2.08,-2.4336 4.66,-3.6406 7.74,-3.6406 4.28,0 8.01,0.3789 11.19,1.1484 V 30.8516"
         style="fill:#5b2e96;fill-opacity:1;fill-rule:nonzero;stroke:none"
         id="path124" />
      <path
         d="m 4115.58,30.8516 h -18.25 V 113.77 h 18.25 z m 0,94.5394 h -18.25 v 18.238 h 18.25 v -18.238"
         style="fill:#5b2e96;fill-opacity:1;fill-rule:nonzero;stroke:none"
         id="path126" />
      <path
         d="m 4191.87,72.3086 c 0,7.3008 -1.77,13.2695 -5.31,17.9102 -3.87,5.2031 -9.4,7.7929 -16.59,7.7929 -7.4,0 -13.05,-2.5898 -16.91,-7.7929 -3.54,-4.6407 -5.31,-10.668 -5.31,-18.0782 0,-7.5195 1.65,-13.539 4.97,-18.0703 3.87,-5.2109 9.46,-7.8008 16.75,-7.8008 7.19,0 12.83,2.711 16.93,8.1289 3.64,4.75 5.47,10.7227 5.47,17.9102 z m 18.4,0 c 0,-12.5 -3.64,-22.7773 -10.94,-30.8477 -7.52,-8.4101 -17.58,-12.6093 -30.19,-12.6093 -12.49,0 -22.38,4.1992 -29.69,12.6093 -6.85,7.961 -10.27,18.2383 -10.27,30.8477 0,12.6133 3.53,22.832 10.61,30.6794 7.41,8.293 17.42,12.453 30.01,12.453 12.61,0 22.56,-4.16 29.86,-12.453 7.08,-7.8474 10.61,-18.0661 10.61,-30.6794"
         style="fill:#5b2e96;fill-opacity:1;fill-rule:nonzero;stroke:none"
         id="path128" />
      <path
         d="m 4292.54,30.8516 h -18.24 v 51.5781 c 0,4.5312 -1.33,8.3516 -3.99,11.4414 -2.64,3.0977 -6.02,4.6406 -10.11,4.6406 -4.76,0 -8.9,-1.8203 -12.44,-5.4726 -3.76,-3.9805 -5.64,-9.1172 -5.64,-15.4297 V 30.8516 h -18.24 V 113.77 h 16.41 l 2.33,-8.45 c 6.85,6.84 14.15,10.27 21.89,10.27 7.85,0 14.43,-2.871 19.74,-8.621 5.53,-6.078 8.29,-13.7581 8.29,-23.0471 V 30.8516"
         style="fill:#5b2e96;fill-opacity:1;fill-rule:nonzero;stroke:none"
         id="path130" />
      <path
         d="m 4402.01,49.75 v 20.7305 c -20.9,0 -31.35,-4.75 -31.35,-14.2617 0,-3.2071 1.35,-6 4.07,-8.3672 2.7,-2.3907 6.32,-3.5703 10.86,-3.5703 4.86,0 10.34,1.8203 16.42,5.4687 z m 20.72,-18.8984 h -15.91 l -1.66,5.2968 c -6.97,-4.8671 -14.21,-7.2968 -21.73,-7.2968 -8.29,0 -15.45,2.5195 -21.48,7.5468 -6.02,5.0313 -9.03,11.3633 -9.03,19 0,12.5899 7.01,21.0508 21.05,25.3711 7.42,2.3203 16.76,3.4805 28.04,3.4805 v 6.8008 c 0,2.7578 -1.44,4.9687 -4.31,6.6289 -2.44,1.5508 -5.09,2.3323 -7.96,2.3323 -6.97,0 -14.66,-1.8909 -23.06,-5.6409 l -4.97,13.4299 c 10.39,5.308 20.28,7.961 29.69,7.961 8.39,0 15.28,-2.43 20.64,-7.301 5.36,-4.859 8.05,-11.4415 8.05,-19.7305 V 40.4609 c 0,-3.5312 0.88,-5.9101 2.64,-7.1211 v -2.4882"
         style="fill:#5b2e96;fill-opacity:1;fill-rule:nonzero;stroke:none"
         id="path132" />
      <path
         d="m 4505,30.8516 h -18.24 v 51.5781 c 0,4.5312 -1.33,8.3516 -3.99,11.4414 -2.64,3.0977 -6.02,4.6406 -10.11,4.6406 -4.76,0 -8.9,-1.8203 -12.44,-5.4726 -3.76,-3.9805 -5.64,-9.1172 -5.64,-15.4297 V 30.8516 h -18.24 V 113.77 h 16.41 l 2.33,-8.45 c 6.85,6.84 14.15,10.27 21.89,10.27 7.85,0 14.43,-2.871 19.74,-8.621 5.53,-6.078 8.29,-13.7581 8.29,-23.0471 V 30.8516"
         style="fill:#5b2e96;fill-opacity:1;fill-rule:nonzero;stroke:none"
         id="path134" />
      <path
         d="m 4577.3,72.1406 c 0,17.6914 -6.73,26.5391 -20.23,26.5391 -6.74,0 -12.1,-2.8203 -16.08,-8.4609 -3.54,-5.0899 -5.31,-11.1094 -5.31,-18.0782 0,-7.289 1.71,-13.2695 5.14,-17.9101 3.87,-5.4219 9.29,-8.1289 16.25,-8.1289 6.52,0 11.53,2.289 15.01,6.8789 3.49,4.5898 5.22,10.9804 5.22,19.1601 z m 16.76,-41.289 h -16.59 l -1.65,6.457 c -5.42,-5.5273 -12.5,-8.2891 -21.23,-8.2891 -11.4,0 -20.63,4.5313 -27.7,13.6016 -6.53,8.2891 -9.79,18.3008 -9.79,30.0195 0,11.6094 3.43,21.5586 10.28,29.8594 7.31,8.73 16.64,13.09 28.04,13.09 7.63,0 14.42,-2.649 20.4,-7.961 v 39.312 h 18.24 V 30.8516"
         style="fill:#5b2e96;fill-opacity:1;fill-rule:nonzero;stroke:none"
         id="path136" />
      <path
         d="m 4722.43,30.8516 h -63.19 V 146.941 h 19.9 V 48.5898 h 43.29 V 30.8516"
         style="fill:#5b2e96;fill-opacity:1;fill-rule:nonzero;stroke:none"
         id="path138" />
      <path
         d="m 4754.27,30.8516 h -18.24 V 113.77 h 18.24 z m 0,94.5394 h -18.24 v 18.238 h 18.24 v -18.238"
         style="fill:#5b2e96;fill-opacity:1;fill-rule:nonzero;stroke:none"
         id="path140" />
      <path
         d="m 4817.78,129.191 c -3.09,0.559 -6.4,0.829 -9.95,0.829 -3.2,0 -5.8,-1.051 -7.79,-3.149 -1.99,-2.101 -2.98,-4.762 -2.98,-7.961 v -5.14 h 15.09 V 98.3516 h -15.09 v -67.5 h -18.25 v 67.5 h -10.94 V 113.77 h 10.94 v 6.14 c 0,8.289 2.35,14.871 7.05,19.731 4.7,4.871 11.2,7.3 19.49,7.3 3.98,0 8.13,-0.55 12.43,-1.652 v -16.098"
         style="fill:#5b2e96;fill-opacity:1;fill-rule:nonzero;stroke:none"
         id="path142" />
      <path
         d="m 4871.52,79.6094 c -0.99,13.2695 -5.91,19.9023 -14.75,19.9023 -10.84,0 -17.37,-6.6328 -19.57,-19.9023 z m 18.58,-14.9297 h -52.4 c 0.43,-6.1992 2.73,-11.0586 6.87,-14.5977 4.15,-3.5312 9.1,-5.3007 14.84,-5.3007 6.75,0 14.6,1.707 23.56,5.1406 l 4.97,-13.9414 c -8.29,-4.7422 -18.35,-7.1289 -30.18,-7.1289 -11.61,0 -21.18,4.1992 -28.7,12.6093 -7.18,8.0704 -10.78,17.9102 -10.78,29.5196 0,12.2812 3.16,22.5586 9.46,30.8475 6.97,9.063 16.42,13.613 28.36,13.613 12.93,0 22.11,-5.089 27.53,-15.269 4.31,-8.0704 6.47,-19.9025 6.47,-35.4923"
         style="fill:#5b2e96;fill-opacity:1;fill-rule:nonzero;stroke:none"
         id="path144" />
      <path
         d="m 4962.74,55.5586 c 0,-8.6289 -3.01,-15.2266 -9.04,-19.8203 -6.02,-4.5899 -14.07,-6.8867 -24.13,-6.8867 -12.16,0 -22.44,2.7695 -30.85,8.289 l 5.65,14.1094 c 8.5,-4.5391 16.74,-6.8008 24.7,-6.8008 3.43,0 6.64,0.7696 9.62,2.3125 3.65,1.8867 5.48,4.4297 5.48,7.6367 0,2.543 -2.27,5.0313 -6.81,7.461 -0.77,0.332 -6.57,2.4922 -17.41,6.4726 -7.52,2.7578 -12.68,5.9375 -15.51,9.5391 -2.81,3.5898 -4.23,8.0898 -4.23,13.5078 0,8.0703 3.37,14.2621 10.12,18.5821 5.86,3.648 13.38,5.48 22.56,5.48 9.83,0 19.01,-2.109 27.53,-6.312 l -5.14,-14.9298 c -7.74,3.3203 -14.7,4.9805 -20.9,4.9805 -10.61,0 -15.92,-2.5391 -15.92,-7.6289 0,-1.8906 1.66,-3.711 4.98,-5.4805 0.99,-0.4414 5.91,-2.1484 14.75,-5.1406 7.08,-2.4297 12.39,-5.0781 15.93,-7.9609 5.74,-4.5391 8.62,-10.3399 8.62,-17.4102"
         style="fill:#5b2e96;fill-opacity:1;fill-rule:nonzero;stroke:none"
         id="path146" />
      <path
         d="m 5026.43,30.8516 c -4.08,-1.3321 -8.65,-2 -13.71,-2 -8.15,0 -14.62,2.5976 -19.41,7.7968 -4.78,5.1914 -7.19,11.9414 -7.19,20.2305 v 41.4727 h -11.44 V 113.77 h 11.44 v 24.05 h 18.26 v -24.05 h 22.05 V 98.3516 h -22.05 V 57.8789 c 0,-3.207 1.03,-6.0273 3.12,-8.457 2.08,-2.4336 4.66,-3.6406 7.73,-3.6406 4.28,0 8.01,0.3789 11.2,1.1484 V 30.8516"
         style="fill:#5b2e96;fill-opacity:1;fill-rule:nonzero;stroke:none"
         id="path148" />
      <path
         d="M 5111.85,113.77 5080.33,18.3984 C 5076.24,6.12891 5067.29,0 5053.47,0 c -4.43,0 -8.52,0.878906 -12.28,2.64844 V 19.3984 c 4.32,-1.6601 8.07,-2.4882 11.28,-2.4882 5.2,0 8.73,2.4414 10.62,7.3007 l 1.66,4.3086 -28.03,85.2505 h 19.24 l 18.41,-61.688 18.4,61.688 h 19.08"
         style="fill:#5b2e96;fill-opacity:1;fill-rule:nonzero;stroke:none"
         id="path150" />
      <path
         d="m 5143.68,30.8516 h -18.24 V 146.941 h 18.24 V 30.8516"
         style="fill:#5b2e96;fill-opacity:1;fill-rule:nonzero;stroke:none"
         id="path152" />
      <path
         d="m 5210.68,79.6094 c -0.99,13.2695 -5.91,19.9023 -14.75,19.9023 -10.84,0 -17.37,-6.6328 -19.57,-19.9023 z m 18.58,-14.9297 h -52.4 c 0.43,-6.1992 2.73,-11.0586 6.87,-14.5977 4.15,-3.5312 9.1,-5.3007 14.84,-5.3007 6.75,0 14.6,1.707 23.56,5.1406 l 4.97,-13.9414 c -8.29,-4.7422 -18.35,-7.1289 -30.18,-7.1289 -11.61,0 -21.18,4.1992 -28.7,12.6093 -7.18,8.0704 -10.78,17.9102 -10.78,29.5196 0,12.2812 3.16,22.5586 9.46,30.8475 6.97,9.063 16.42,13.613 28.36,13.613 12.93,0 22.11,-5.089 27.53,-15.269 4.31,-8.0704 6.47,-19.9025 6.47,-35.4923"
         style="fill:#5b2e96;fill-opacity:1;fill-rule:nonzero;stroke:none"
         id="path154" />
      <path
         d="m 5406.88,30.8516 h -19.9 v 82.4294 l -28.7,-54.7419 h -18.74 l -28.52,54.9019 V 30.8516 h -19.91 V 146.941 h 23.06 l 34.68,-67.109 35.37,67.109 h 22.66 V 30.8516"
         style="fill:#5b2e96;fill-opacity:1;fill-rule:nonzero;stroke:none"
         id="path156" />
      <path
         d="m 5472.24,79.6094 c -1,13.2695 -5.92,19.9023 -14.76,19.9023 -10.84,0 -17.36,-6.6328 -19.57,-19.9023 z m 18.57,-14.9297 h -52.4 c 0.44,-6.1992 2.73,-11.0586 6.87,-14.5977 4.15,-3.5312 9.1,-5.3007 14.85,-5.3007 6.75,0 14.6,1.707 23.55,5.1406 l 4.97,-13.9414 c -8.29,-4.7422 -18.35,-7.1289 -30.17,-7.1289 -11.61,0 -21.19,4.1992 -28.7,12.6093 -7.19,8.0704 -10.79,17.9102 -10.79,29.5196 0,12.2812 3.16,22.5586 9.47,30.8475 6.96,9.063 16.41,13.613 28.36,13.613 12.93,0 22.11,-5.089 27.53,-15.269 4.3,-8.0704 6.46,-19.9025 6.46,-35.4923"
         style="fill:#5b2e96;fill-opacity:1;fill-rule:nonzero;stroke:none"
         id="path158" />
      <path
         d="m 5561.29,72.1406 c 0,17.6914 -6.74,26.5391 -20.24,26.5391 -6.73,0 -12.09,-2.8203 -16.08,-8.4609 -3.53,-5.0899 -5.3,-11.1094 -5.3,-18.0782 0,-7.289 1.71,-13.2695 5.13,-17.9101 3.87,-5.4219 9.29,-8.1289 16.25,-8.1289 6.53,0 11.54,2.289 15.01,6.8789 3.49,4.5898 5.23,10.9804 5.23,19.1601 z m 16.76,-41.289 h -16.59 l -1.66,6.457 c -5.42,-5.5273 -12.5,-8.2891 -21.23,-8.2891 -11.39,0 -20.62,4.5313 -27.69,13.6016 -6.53,8.2891 -9.8,18.3008 -9.8,30.0195 0,11.6094 3.43,21.5586 10.29,29.8594 7.3,8.73 16.64,13.09 28.03,13.09 7.63,0 14.43,-2.649 20.4,-7.961 v 39.312 h 18.25 V 30.8516"
         style="fill:#5b2e96;fill-opacity:1;fill-rule:nonzero;stroke:none"
         id="path160" />
      <path
         d="m 5614.7,30.8516 h -18.24 V 113.77 h 18.24 z m 0,94.5394 h -18.24 v 18.238 h 18.24 v -18.238"
         style="fill:#5b2e96;fill-opacity:1;fill-rule:nonzero;stroke:none"
         id="path162" />
      <path
         d="m 5697.79,35.9805 c -8.3,-4.7422 -17.86,-7.1289 -28.7,-7.1289 -12.38,0 -22.33,4.1992 -29.85,12.6093 -7.19,7.961 -10.78,18.2383 -10.78,30.8477 0,11.9414 3.98,22.1406 11.94,30.6014 7.96,8.449 17.59,12.68 28.86,12.68 9.28,0 18.69,-2.539 28.2,-7.629 l -7.14,-13.7618 c -6.3,3.6524 -13.09,5.4727 -20.4,5.4727 -6.85,0 -12.38,-2.7305 -16.58,-8.211 -4.2,-5.4726 -6.3,-11.8515 -6.3,-19.1523 0,-7.8477 1.93,-14.3281 5.8,-19.3984 3.99,-5.4219 9.23,-8.1289 15.75,-8.1289 8.19,0 16.31,1.6484 24.39,4.9687 l 4.81,-13.7695"
         style="fill:#5b2e96;fill-opacity:1;fill-rule:nonzero;stroke:none"
         id="path164" />
      <path
         d="m 5731.12,30.8516 h -18.24 V 113.77 h 18.24 z m 0,94.5394 h -18.24 v 18.238 h 18.24 v -18.238"
         style="fill:#5b2e96;fill-opacity:1;fill-rule:nonzero;stroke:none"
         id="path166" />
      <path
         d="m 5818.36,30.8516 h -18.24 v 51.5781 c 0,4.5312 -1.33,8.3516 -3.99,11.4414 -2.64,3.0977 -6.02,4.6406 -10.11,4.6406 -4.76,0 -8.9,-1.8203 -12.44,-5.4726 -3.76,-3.9805 -5.64,-9.1172 -5.64,-15.4297 V 30.8516 H 5749.7 V 113.77 h 16.41 l 2.33,-8.45 c 6.85,6.84 14.15,10.27 21.89,10.27 7.85,0 14.43,-2.871 19.74,-8.621 5.53,-6.078 8.29,-13.7581 8.29,-23.0471 V 30.8516"
         style="fill:#5b2e96;fill-opacity:1;fill-rule:nonzero;stroke:none"
         id="path168" />
      <path
         d="m 5883.7,79.6094 c -0.99,13.2695 -5.92,19.9023 -14.75,19.9023 -10.84,0 -17.37,-6.6328 -19.57,-19.9023 z m 18.58,-14.9297 h -52.41 c 0.44,-6.1992 2.74,-11.0586 6.88,-14.5977 4.15,-3.5312 9.1,-5.3007 14.84,-5.3007 6.75,0 14.6,1.707 23.56,5.1406 l 4.97,-13.9414 c -8.29,-4.7422 -18.35,-7.1289 -30.18,-7.1289 -11.61,0 -21.18,4.1992 -28.7,12.6093 -7.19,8.0704 -10.78,17.9102 -10.78,29.5196 0,12.2812 3.15,22.5586 9.46,30.8475 6.96,9.063 16.42,13.613 28.36,13.613 12.93,0 22.11,-5.089 27.53,-15.269 4.31,-8.0704 6.47,-19.9025 6.47,-35.4923"
         style="fill:#5b2e96;fill-opacity:1;fill-rule:nonzero;stroke:none"
         id="path170" />
    </g>
  </g>
</svg>
